<svg width="20" height="24" viewBox="0 0 20 24" fill="none" xmlns="http://www.w3.org/2000/svg">
<path d="M16.0016 0.678824C16.118 0.324247 16.6196 0.323716 16.7365 0.678068L17.4196 2.75011C17.4581 2.86664 17.5496 2.95803 17.6662 2.99632L19.7394 3.67642C20.0938 3.79284 20.0941 4.29407 19.7398 4.41089L17.6681 5.09402C17.5953 5.11803 17.5321 5.16269 17.4857 5.22128L17.4963 18.348L17.4959 18.3725L17.491 18.5662L17.4902 18.5908C17.3651 21.0914 15.2998 23.0809 12.7684 23.083L12.5369 23.0774C10.2172 22.9674 8.3376 21.1868 8.06847 18.9118C8.04627 18.8301 8.03343 18.7452 8.03332 18.6591V18.3854L8.03297 18.3552L8.02353 6.45841C8.02353 6.45598 8.02384 6.45323 8.02388 6.45083V6.30772L8.02048 6.17934C7.95258 4.86026 6.86091 3.81225 5.52513 3.81312L5.4005 3.81615C4.12315 3.87995 3.0989 4.90396 3.03394 6.18007L3.03016 6.32168L3.04111 20.323C3.54297 20.6718 3.87172 21.2522 3.87227 21.9098C3.87308 22.9776 3.00814 23.8439 1.94033 23.8447C0.872581 23.8454 0.00620186 22.9805 0.00537162 21.9128C0.00489859 21.2627 0.325552 20.6874 0.817268 20.3365C0.813742 20.3391 0.810204 20.3416 0.806696 20.3441C0.806623 20.3396 0.806321 20.335 0.806317 20.3305L0.795366 6.3134C0.795362 6.30532 0.795548 6.29689 0.795745 6.28885L0.800652 6.09512C0.80085 6.08707 0.800633 6.07861 0.801031 6.07056L0.81878 5.83797C1.04813 3.5247 2.94243 1.70104 5.28724 1.58399L5.52324 1.57833C8.13637 1.57645 10.2563 3.69325 10.2583 6.30621L10.2678 18.3536C10.269 19.6893 11.319 20.7793 12.6381 20.8452L12.7665 20.8486C14.1008 20.8475 15.1905 19.799 15.2581 18.482L15.2615 18.34L15.2509 5.21335C15.2054 5.15979 15.1458 5.11842 15.0772 5.09591L13.0044 4.41619C12.6498 4.29987 12.6492 3.7982 13.0037 3.68133L15.0757 2.99821C15.1922 2.95971 15.2836 2.86824 15.3219 2.75162L16.0016 0.678824ZM1.93807 20.7512C1.29738 20.7517 0.778251 21.2717 0.77875 21.9124C0.779315 22.553 1.29931 23.0718 1.93995 23.0713C2.58059 23.0708 3.09936 22.5512 3.09889 21.9105C3.09839 21.2698 2.57875 20.7507 1.93807 20.7512ZM2.03247 19.9801C2.02631 19.9798 2.02014 19.9796 2.01397 19.9793L1.93731 19.9778C1.96916 19.9778 2.00099 19.9786 2.03247 19.9801Z" fill="#666666"/>
</svg>
